<mxfile host="app.diagrams.net" modified="2023-11-22T22:50:24.423Z" agent="Mozilla/5.0 (X11; Linux x86_64; rv:109.0) Gecko/20100101 Firefox/118.0" etag="EEIr9yEU_QF32cfYh0Iw" version="22.1.3" type="device">
  <diagram name="Page-1" id="_pV0R9kBSUZKi_Badlil">
    <mxGraphModel dx="1026" dy="1662" grid="1" gridSize="10" guides="1" tooltips="1" connect="1" arrows="1" fold="1" page="1" pageScale="1" pageWidth="827" pageHeight="1169" math="0" shadow="0">
      <root>
        <mxCell id="0" />
        <mxCell id="1" parent="0" />
        <mxCell id="qsIikp0Rk30uA765-qr5-70" style="edgeStyle=orthogonalEdgeStyle;rounded=0;orthogonalLoop=1;jettySize=auto;html=1;exitX=0;exitY=0.3333333333333333;exitDx=0;exitDy=0;exitPerimeter=0;endArrow=none;endFill=0;entryX=1;entryY=0.5;entryDx=0;entryDy=0;" parent="1" source="qsIikp0Rk30uA765-qr5-1" target="qsIikp0Rk30uA765-qr5-24" edge="1">
          <mxGeometry relative="1" as="geometry">
            <mxPoint x="840" y="-970.0000000000002" as="targetPoint" />
            <Array as="points">
              <mxPoint x="770" y="-1080" />
              <mxPoint x="770" y="-859" />
            </Array>
          </mxGeometry>
        </mxCell>
        <mxCell id="qsIikp0Rk30uA765-qr5-71" style="edgeStyle=orthogonalEdgeStyle;rounded=0;orthogonalLoop=1;jettySize=auto;html=1;exitX=0;exitY=0.3333333333333333;exitDx=0;exitDy=0;exitPerimeter=0;entryX=1;entryY=0.5;entryDx=0;entryDy=0;endArrow=none;endFill=0;" parent="1" source="qsIikp0Rk30uA765-qr5-1" target="qsIikp0Rk30uA765-qr5-25" edge="1">
          <mxGeometry relative="1" as="geometry">
            <Array as="points">
              <mxPoint x="620" y="-1080" />
              <mxPoint x="620" y="-1080" />
            </Array>
          </mxGeometry>
        </mxCell>
        <mxCell id="qsIikp0Rk30uA765-qr5-72" style="edgeStyle=orthogonalEdgeStyle;rounded=0;orthogonalLoop=1;jettySize=auto;html=1;exitX=1;exitY=0.5;exitDx=0;exitDy=0;endArrow=none;endFill=0;" parent="1" source="qsIikp0Rk30uA765-qr5-55" target="qsIikp0Rk30uA765-qr5-62" edge="1">
          <mxGeometry relative="1" as="geometry">
            <Array as="points">
              <mxPoint x="850" y="-710" />
              <mxPoint x="850" y="-830" />
            </Array>
          </mxGeometry>
        </mxCell>
        <mxCell id="qsIikp0Rk30uA765-qr5-1" value="Backup server&lt;br&gt;" style="shape=umlActor;verticalLabelPosition=bottom;verticalAlign=top;html=1;outlineConnect=0;" parent="1" vertex="1">
          <mxGeometry x="920" y="-1100" width="30" height="60" as="geometry" />
        </mxCell>
        <mxCell id="qsIikp0Rk30uA765-qr5-4" value="statistic" style="ellipse;whiteSpace=wrap;html=1;fillColor=#d5e8d4;strokeColor=#82b366;" parent="1" vertex="1">
          <mxGeometry x="160" y="-110" width="120" height="80" as="geometry" />
        </mxCell>
        <mxCell id="qsIikp0Rk30uA765-qr5-5" value="search subject(s)++" style="ellipse;whiteSpace=wrap;html=1;fillColor=#fff2cc;strokeColor=#d6b656;" parent="1" vertex="1">
          <mxGeometry x="350" y="-330" width="120" height="80" as="geometry" />
        </mxCell>
        <mxCell id="qsIikp0Rk30uA765-qr5-6" value="filter subjects++" style="ellipse;whiteSpace=wrap;html=1;fillColor=#fff2cc;strokeColor=#d6b656;" parent="1" vertex="1">
          <mxGeometry x="350" y="-430" width="120" height="80" as="geometry" />
        </mxCell>
        <mxCell id="qsIikp0Rk30uA765-qr5-7" value="add new subject" style="ellipse;whiteSpace=wrap;html=1;fillColor=#fff2cc;strokeColor=#d6b656;" parent="1" vertex="1">
          <mxGeometry x="350" y="-650" width="120" height="80" as="geometry" />
        </mxCell>
        <mxCell id="qsIikp0Rk30uA765-qr5-8" value="&amp;nbsp;delete subject" style="ellipse;whiteSpace=wrap;html=1;fillColor=#fff2cc;strokeColor=#d6b656;" parent="1" vertex="1">
          <mxGeometry x="780" y="-689" width="120" height="80" as="geometry" />
        </mxCell>
        <mxCell id="qsIikp0Rk30uA765-qr5-9" value="delete all subjects" style="ellipse;whiteSpace=wrap;html=1;fillColor=#fff2cc;strokeColor=#d6b656;" parent="1" vertex="1">
          <mxGeometry x="350" y="-525" width="120" height="80" as="geometry" />
        </mxCell>
        <mxCell id="qsIikp0Rk30uA765-qr5-17" value="remaining study hours" style="ellipse;whiteSpace=wrap;html=1;fillColor=#d5e8d4;strokeColor=#82b366;" parent="1" vertex="1">
          <mxGeometry x="350" y="-237" width="120" height="80" as="geometry" />
        </mxCell>
        <mxCell id="qsIikp0Rk30uA765-qr5-18" value="evaluation learning hours per course" style="ellipse;whiteSpace=wrap;html=1;fillColor=#d5e8d4;strokeColor=#82b366;" parent="1" vertex="1">
          <mxGeometry x="350" y="-150" width="120" height="80" as="geometry" />
        </mxCell>
        <mxCell id="qsIikp0Rk30uA765-qr5-19" value="heatmap" style="ellipse;whiteSpace=wrap;html=1;fillColor=#d5e8d4;strokeColor=#82b366;" parent="1" vertex="1">
          <mxGeometry x="350" y="33" width="120" height="80" as="geometry" />
        </mxCell>
        <mxCell id="qsIikp0Rk30uA765-qr5-20" value="&lt;div&gt;overview of learning hours per time period&lt;/div&gt;" style="ellipse;whiteSpace=wrap;html=1;fillColor=#d5e8d4;strokeColor=#82b366;" parent="1" vertex="1">
          <mxGeometry x="350" y="-57" width="120" height="80" as="geometry" />
        </mxCell>
        <mxCell id="qsIikp0Rk30uA765-qr5-21" value="backups" style="ellipse;whiteSpace=wrap;html=1;fillColor=#dae8fc;strokeColor=#6c8ebf;" parent="1" vertex="1">
          <mxGeometry x="150" y="-1021" width="120" height="80" as="geometry" />
        </mxCell>
        <mxCell id="qsIikp0Rk30uA765-qr5-66" style="edgeStyle=orthogonalEdgeStyle;rounded=0;orthogonalLoop=1;jettySize=auto;html=1;exitX=1;exitY=0.3333333333333333;exitDx=0;exitDy=0;exitPerimeter=0;entryX=0.25;entryY=0.5;entryDx=0;entryDy=0;entryPerimeter=0;" parent="1" source="qsIikp0Rk30uA765-qr5-22" edge="1" target="PMJGMxURvAY6IK8JLLdZ-7">
          <mxGeometry relative="1" as="geometry">
            <mxPoint x="150" y="-540" as="targetPoint" />
          </mxGeometry>
        </mxCell>
        <mxCell id="qsIikp0Rk30uA765-qr5-67" style="edgeStyle=orthogonalEdgeStyle;rounded=0;orthogonalLoop=1;jettySize=auto;html=1;exitX=1;exitY=0.3333333333333333;exitDx=0;exitDy=0;exitPerimeter=0;entryX=0;entryY=0.5;entryDx=0;entryDy=0;" parent="1" source="qsIikp0Rk30uA765-qr5-22" target="qsIikp0Rk30uA765-qr5-4" edge="1">
          <mxGeometry relative="1" as="geometry">
            <Array as="points">
              <mxPoint x="130" y="-540" />
              <mxPoint x="130" y="-70" />
            </Array>
            <mxPoint x="160" y="-80" as="targetPoint" />
          </mxGeometry>
        </mxCell>
        <mxCell id="qsIikp0Rk30uA765-qr5-22" value="Student" style="shape=umlActor;verticalLabelPosition=bottom;verticalAlign=top;html=1;outlineConnect=0;" parent="1" vertex="1">
          <mxGeometry x="80" y="-560" width="30" height="60" as="geometry" />
        </mxCell>
        <mxCell id="qsIikp0Rk30uA765-qr5-23" value="import backup" style="ellipse;whiteSpace=wrap;html=1;fillColor=#dae8fc;strokeColor=#6c8ebf;" parent="1" vertex="1">
          <mxGeometry x="534" y="-991" width="120" height="80" as="geometry" />
        </mxCell>
        <mxCell id="qsIikp0Rk30uA765-qr5-24" value="delete backup" style="ellipse;whiteSpace=wrap;html=1;fillColor=#dae8fc;strokeColor=#6c8ebf;" parent="1" vertex="1">
          <mxGeometry x="534" y="-899" width="120" height="80" as="geometry" />
        </mxCell>
        <mxCell id="qsIikp0Rk30uA765-qr5-25" value="delete all backups" style="ellipse;whiteSpace=wrap;html=1;fillColor=#dae8fc;strokeColor=#6c8ebf;" parent="1" vertex="1">
          <mxGeometry x="350" y="-1120" width="120" height="80" as="geometry" />
        </mxCell>
        <mxCell id="3aGlbDCfd9qa62hopPnl-4" value="" style="edgeStyle=orthogonalEdgeStyle;rounded=0;orthogonalLoop=1;jettySize=auto;html=1;entryX=0.5;entryY=0.5;entryDx=0;entryDy=0;entryPerimeter=0;endArrow=none;endFill=0;" edge="1" parent="1" target="qsIikp0Rk30uA765-qr5-1">
          <mxGeometry relative="1" as="geometry">
            <mxPoint x="470" y="-980" as="sourcePoint" />
            <Array as="points">
              <mxPoint x="510" y="-981" />
              <mxPoint x="510" y="-1080" />
              <mxPoint x="935" y="-1080" />
            </Array>
          </mxGeometry>
        </mxCell>
        <mxCell id="qsIikp0Rk30uA765-qr5-26" value="create backup" style="ellipse;whiteSpace=wrap;html=1;fillColor=#dae8fc;strokeColor=#6c8ebf;" parent="1" vertex="1">
          <mxGeometry x="350" y="-1021" width="120" height="80" as="geometry" />
        </mxCell>
        <mxCell id="qsIikp0Rk30uA765-qr5-27" value="Time Track" style="ellipse;whiteSpace=wrap;html=1;fillColor=#fff2cc;strokeColor=#FF0000;" parent="1" vertex="1">
          <mxGeometry x="534" y="-360" width="120" height="80" as="geometry" />
        </mxCell>
        <mxCell id="qsIikp0Rk30uA765-qr5-37" value="extend" style="endArrow=none;dashed=1;html=1;dashPattern=1 3;strokeWidth=2;rounded=0;exitX=1;exitY=0;exitDx=0;exitDy=0;entryX=0;entryY=1;entryDx=0;entryDy=0;endFill=0;startArrow=classic;startFill=1;" parent="1" source="qsIikp0Rk30uA765-qr5-59" target="qsIikp0Rk30uA765-qr5-8" edge="1">
          <mxGeometry width="50" height="50" relative="1" as="geometry">
            <mxPoint x="1270" y="-550" as="sourcePoint" />
            <mxPoint x="1320" y="-600" as="targetPoint" />
          </mxGeometry>
        </mxCell>
        <mxCell id="qsIikp0Rk30uA765-qr5-38" value="extend" style="endArrow=none;dashed=1;html=1;dashPattern=1 3;strokeWidth=2;rounded=0;exitX=0.731;exitY=0.667;exitDx=0;exitDy=0;endFill=0;exitPerimeter=0;startArrow=classic;startFill=1;" parent="1" source="PMJGMxURvAY6IK8JLLdZ-7" target="qsIikp0Rk30uA765-qr5-9" edge="1">
          <mxGeometry width="50" height="50" relative="1" as="geometry">
            <mxPoint x="270" y="-526.48" as="sourcePoint" />
            <mxPoint x="326" y="-598" as="targetPoint" />
          </mxGeometry>
        </mxCell>
        <mxCell id="qsIikp0Rk30uA765-qr5-39" value="extend" style="endArrow=none;dashed=1;html=1;dashPattern=1 3;strokeWidth=2;rounded=0;exitX=1;exitY=0;exitDx=0;exitDy=0;entryX=0;entryY=0.5;entryDx=0;entryDy=0;endFill=0;startArrow=classic;startFill=1;exitPerimeter=0;" parent="1" source="PMJGMxURvAY6IK8JLLdZ-7" target="qsIikp0Rk30uA765-qr5-7" edge="1">
          <mxGeometry width="50" height="50" relative="1" as="geometry">
            <mxPoint x="270" y="-540" as="sourcePoint" />
            <mxPoint x="336" y="-588" as="targetPoint" />
          </mxGeometry>
        </mxCell>
        <mxCell id="qsIikp0Rk30uA765-qr5-42" value="extend" style="endArrow=none;dashed=1;html=1;dashPattern=1 3;strokeWidth=2;rounded=0;entryX=0;entryY=0;entryDx=0;entryDy=0;endFill=0;startArrow=classic;startFill=1;exitX=0.921;exitY=0.952;exitDx=0;exitDy=0;exitPerimeter=0;" parent="1" source="PMJGMxURvAY6IK8JLLdZ-7" target="qsIikp0Rk30uA765-qr5-6" edge="1">
          <mxGeometry width="50" height="50" relative="1" as="geometry">
            <mxPoint x="240.0091933531487" y="-505.36252309487304" as="sourcePoint" />
            <mxPoint x="1214" y="-490" as="targetPoint" />
          </mxGeometry>
        </mxCell>
        <mxCell id="qsIikp0Rk30uA765-qr5-43" value="extend" style="endArrow=none;dashed=1;html=1;dashPattern=1 3;strokeWidth=2;rounded=0;exitX=0.5;exitY=0.75;exitDx=0;exitDy=0;entryX=0;entryY=0.5;entryDx=0;entryDy=0;endFill=0;startArrow=classic;startFill=1;exitPerimeter=0;" parent="1" source="PMJGMxURvAY6IK8JLLdZ-7" target="qsIikp0Rk30uA765-qr5-5" edge="1">
          <mxGeometry width="50" height="50" relative="1" as="geometry">
            <mxPoint x="210" y="-500" as="sourcePoint" />
            <mxPoint x="1224" y="-480" as="targetPoint" />
          </mxGeometry>
        </mxCell>
        <mxCell id="qsIikp0Rk30uA765-qr5-44" value="extend" style="endArrow=none;dashed=1;html=1;dashPattern=1 3;strokeWidth=2;rounded=0;exitX=0.45;exitY=-0.012;exitDx=0;exitDy=0;entryX=0.055;entryY=0.764;entryDx=0;entryDy=0;entryPerimeter=0;endFill=0;startArrow=classic;startFill=1;exitPerimeter=0;" parent="1" source="qsIikp0Rk30uA765-qr5-4" target="qsIikp0Rk30uA765-qr5-17" edge="1">
          <mxGeometry width="50" height="50" relative="1" as="geometry">
            <mxPoint x="1170" y="-267" as="sourcePoint" />
            <mxPoint x="1234" y="-307" as="targetPoint" />
          </mxGeometry>
        </mxCell>
        <mxCell id="qsIikp0Rk30uA765-qr5-45" value="extend" style="endArrow=none;dashed=1;html=1;dashPattern=1 3;strokeWidth=2;rounded=0;exitX=1;exitY=0;exitDx=0;exitDy=0;entryX=0;entryY=0.5;entryDx=0;entryDy=0;endFill=0;startArrow=classic;startFill=1;" parent="1" source="qsIikp0Rk30uA765-qr5-4" target="qsIikp0Rk30uA765-qr5-18" edge="1">
          <mxGeometry width="50" height="50" relative="1" as="geometry">
            <mxPoint x="1180" y="-257" as="sourcePoint" />
            <mxPoint x="1244" y="-297" as="targetPoint" />
          </mxGeometry>
        </mxCell>
        <mxCell id="qsIikp0Rk30uA765-qr5-46" value="extend" style="endArrow=none;dashed=1;html=1;dashPattern=1 3;strokeWidth=2;rounded=0;exitX=1;exitY=1;exitDx=0;exitDy=0;entryX=0;entryY=0.5;entryDx=0;entryDy=0;endFill=0;startArrow=classic;startFill=1;" parent="1" source="qsIikp0Rk30uA765-qr5-4" target="qsIikp0Rk30uA765-qr5-20" edge="1">
          <mxGeometry width="50" height="50" relative="1" as="geometry">
            <mxPoint x="1190" y="-247" as="sourcePoint" />
            <mxPoint x="1254" y="-287" as="targetPoint" />
          </mxGeometry>
        </mxCell>
        <mxCell id="qsIikp0Rk30uA765-qr5-47" value="extend" style="endArrow=none;dashed=1;html=1;dashPattern=1 3;strokeWidth=2;rounded=0;exitX=0.5;exitY=1;exitDx=0;exitDy=0;entryX=0;entryY=0.5;entryDx=0;entryDy=0;endFill=0;startArrow=classic;startFill=1;" parent="1" source="qsIikp0Rk30uA765-qr5-4" target="qsIikp0Rk30uA765-qr5-19" edge="1">
          <mxGeometry width="50" height="50" relative="1" as="geometry">
            <mxPoint x="1200" y="-237" as="sourcePoint" />
            <mxPoint x="1264" y="-277" as="targetPoint" />
          </mxGeometry>
        </mxCell>
        <mxCell id="qsIikp0Rk30uA765-qr5-48" value="extend" style="endArrow=none;dashed=1;html=1;dashPattern=1 3;strokeWidth=2;rounded=0;entryX=0;entryY=0.5;entryDx=0;entryDy=0;endFill=0;startArrow=classic;startFill=1;" parent="1" source="qsIikp0Rk30uA765-qr5-21" target="qsIikp0Rk30uA765-qr5-26" edge="1">
          <mxGeometry width="50" height="50" relative="1" as="geometry">
            <mxPoint x="1210" y="-390" as="sourcePoint" />
            <mxPoint x="1274" y="-430" as="targetPoint" />
          </mxGeometry>
        </mxCell>
        <mxCell id="qsIikp0Rk30uA765-qr5-49" value="include" style="endArrow=none;dashed=1;html=1;dashPattern=1 3;strokeWidth=2;rounded=0;entryX=0;entryY=0.5;entryDx=0;entryDy=0;endFill=0;startArrow=classic;startFill=1;exitX=1;exitY=1;exitDx=0;exitDy=0;" parent="1" source="qsIikp0Rk30uA765-qr5-26" target="qsIikp0Rk30uA765-qr5-23" edge="1">
          <mxGeometry width="50" height="50" relative="1" as="geometry">
            <mxPoint x="556" y="-880" as="sourcePoint" />
            <mxPoint x="1284" y="-420" as="targetPoint" />
          </mxGeometry>
        </mxCell>
        <mxCell id="qsIikp0Rk30uA765-qr5-50" value="extend" style="endArrow=none;dashed=1;html=1;dashPattern=1 3;strokeWidth=2;rounded=0;entryX=0;entryY=0.5;entryDx=0;entryDy=0;endFill=0;startArrow=classic;startFill=1;exitX=1;exitY=0.5;exitDx=0;exitDy=0;" parent="1" source="qsIikp0Rk30uA765-qr5-52" target="qsIikp0Rk30uA765-qr5-24" edge="1">
          <mxGeometry width="50" height="50" relative="1" as="geometry">
            <mxPoint x="620" y="-960" as="sourcePoint" />
            <mxPoint x="1294" y="-410" as="targetPoint" />
          </mxGeometry>
        </mxCell>
        <mxCell id="qsIikp0Rk30uA765-qr5-51" value="extend" style="endArrow=none;dashed=1;html=1;dashPattern=1 3;strokeWidth=2;rounded=0;exitX=0.5;exitY=0;exitDx=0;exitDy=0;entryX=0;entryY=0.5;entryDx=0;entryDy=0;endFill=0;startArrow=classic;startFill=1;" parent="1" source="qsIikp0Rk30uA765-qr5-21" target="qsIikp0Rk30uA765-qr5-25" edge="1">
          <mxGeometry width="50" height="50" relative="1" as="geometry">
            <mxPoint x="1240" y="-360" as="sourcePoint" />
            <mxPoint x="1304" y="-400" as="targetPoint" />
          </mxGeometry>
        </mxCell>
        <mxCell id="qsIikp0Rk30uA765-qr5-52" value="backup" style="ellipse;whiteSpace=wrap;html=1;fillColor=#dae8fc;strokeColor=#FF0000;" parent="1" vertex="1">
          <mxGeometry x="350" y="-900" width="120" height="80" as="geometry" />
        </mxCell>
        <mxCell id="qsIikp0Rk30uA765-qr5-53" value="include" style="endArrow=classic;dashed=1;html=1;dashPattern=1 3;strokeWidth=2;rounded=0;endFill=1;exitX=0.5;exitY=1;exitDx=0;exitDy=0;entryX=0.5;entryY=0;entryDx=0;entryDy=0;" parent="1" source="qsIikp0Rk30uA765-qr5-26" target="qsIikp0Rk30uA765-qr5-52" edge="1">
          <mxGeometry width="50" height="50" relative="1" as="geometry">
            <mxPoint x="1270" y="-550" as="sourcePoint" />
            <mxPoint x="510" y="-880" as="targetPoint" />
          </mxGeometry>
        </mxCell>
        <mxCell id="qsIikp0Rk30uA765-qr5-54" value="export backup" style="ellipse;whiteSpace=wrap;html=1;fillColor=#dae8fc;strokeColor=#6c8ebf;" parent="1" vertex="1">
          <mxGeometry x="534" y="-810" width="120" height="80" as="geometry" />
        </mxCell>
        <mxCell id="qsIikp0Rk30uA765-qr5-55" value="restore from backup" style="ellipse;whiteSpace=wrap;html=1;fillColor=#dae8fc;strokeColor=#6c8ebf;" parent="1" vertex="1">
          <mxGeometry x="350" y="-750" width="120" height="80" as="geometry" />
        </mxCell>
        <mxCell id="qsIikp0Rk30uA765-qr5-56" value="extend" style="endArrow=none;dashed=1;html=1;dashPattern=1 3;strokeWidth=2;rounded=0;entryX=0;entryY=0.5;entryDx=0;entryDy=0;endFill=0;startArrow=classic;startFill=1;exitX=1;exitY=1;exitDx=0;exitDy=0;" parent="1" source="qsIikp0Rk30uA765-qr5-52" target="qsIikp0Rk30uA765-qr5-54" edge="1">
          <mxGeometry width="50" height="50" relative="1" as="geometry">
            <mxPoint x="400" y="-970" as="sourcePoint" />
            <mxPoint x="690" y="-970" as="targetPoint" />
          </mxGeometry>
        </mxCell>
        <mxCell id="qsIikp0Rk30uA765-qr5-57" value="extend" style="endArrow=none;dashed=1;html=1;dashPattern=1 3;strokeWidth=2;rounded=0;entryX=0.5;entryY=0;entryDx=0;entryDy=0;endFill=0;startArrow=classic;startFill=1;exitX=0.5;exitY=1;exitDx=0;exitDy=0;" parent="1" source="qsIikp0Rk30uA765-qr5-52" target="qsIikp0Rk30uA765-qr5-55" edge="1">
          <mxGeometry x="-0.4061" y="4" width="50" height="50" relative="1" as="geometry">
            <mxPoint x="400" y="-970" as="sourcePoint" />
            <mxPoint x="690" y="-970" as="targetPoint" />
            <mxPoint as="offset" />
          </mxGeometry>
        </mxCell>
        <mxCell id="qsIikp0Rk30uA765-qr5-58" value="extend" style="endArrow=none;dashed=1;html=1;dashPattern=1 3;strokeWidth=2;rounded=0;endFill=0;startArrow=classic;startFill=1;strokeColor=#FF0000;entryX=0.5;entryY=0.25;entryDx=0;entryDy=0;entryPerimeter=0;" parent="1" source="qsIikp0Rk30uA765-qr5-52" target="PMJGMxURvAY6IK8JLLdZ-7" edge="1">
          <mxGeometry x="0.5474" y="6" width="50" height="50" relative="1" as="geometry">
            <mxPoint x="278" y="-830" as="sourcePoint" />
            <mxPoint x="210" y="-580" as="targetPoint" />
            <mxPoint as="offset" />
          </mxGeometry>
        </mxCell>
        <mxCell id="qsIikp0Rk30uA765-qr5-59" value="subject" style="ellipse;whiteSpace=wrap;html=1;fillColor=#fff2cc;strokeColor=#FF0000;" parent="1" vertex="1">
          <mxGeometry x="534" y="-580" width="120" height="80" as="geometry" />
        </mxCell>
        <mxCell id="qsIikp0Rk30uA765-qr5-60" value="include" style="endArrow=classic;dashed=1;html=1;dashPattern=1 3;strokeWidth=2;rounded=0;endFill=1;exitX=1;exitY=0.5;exitDx=0;exitDy=0;entryX=0;entryY=0;entryDx=0;entryDy=0;" parent="1" source="qsIikp0Rk30uA765-qr5-7" target="qsIikp0Rk30uA765-qr5-59" edge="1">
          <mxGeometry width="50" height="50" relative="1" as="geometry">
            <mxPoint x="455" y="-871" as="sourcePoint" />
            <mxPoint x="382" y="-942" as="targetPoint" />
          </mxGeometry>
        </mxCell>
        <mxCell id="qsIikp0Rk30uA765-qr5-61" value="include" style="endArrow=classic;dashed=1;html=1;dashPattern=1 3;strokeWidth=2;rounded=0;endFill=1;entryX=1;entryY=0;entryDx=0;entryDy=0;exitX=0;exitY=0.5;exitDx=0;exitDy=0;" parent="1" source="qsIikp0Rk30uA765-qr5-73" target="qsIikp0Rk30uA765-qr5-27" edge="1">
          <mxGeometry width="50" height="50" relative="1" as="geometry">
            <mxPoint x="455" y="-871" as="sourcePoint" />
            <mxPoint x="382" y="-942" as="targetPoint" />
          </mxGeometry>
        </mxCell>
        <mxCell id="qsIikp0Rk30uA765-qr5-64" style="edgeStyle=orthogonalEdgeStyle;rounded=0;orthogonalLoop=1;jettySize=auto;html=1;exitX=0;exitY=0.3333333333333333;exitDx=0;exitDy=0;exitPerimeter=0;entryX=1;entryY=0.5;entryDx=0;entryDy=0;endArrow=none;endFill=0;" parent="1" source="qsIikp0Rk30uA765-qr5-62" target="qsIikp0Rk30uA765-qr5-54" edge="1">
          <mxGeometry relative="1" as="geometry">
            <Array as="points">
              <mxPoint x="920" y="-830" />
              <mxPoint x="850" y="-830" />
              <mxPoint x="850" y="-770" />
            </Array>
          </mxGeometry>
        </mxCell>
        <mxCell id="qsIikp0Rk30uA765-qr5-62" value="external backup file" style="shape=umlActor;verticalLabelPosition=bottom;verticalAlign=top;html=1;outlineConnect=0;" parent="1" vertex="1">
          <mxGeometry x="920" y="-849" width="30" height="60" as="geometry" />
        </mxCell>
        <mxCell id="qsIikp0Rk30uA765-qr5-63" style="edgeStyle=orthogonalEdgeStyle;rounded=0;orthogonalLoop=1;jettySize=auto;html=1;exitX=1;exitY=0.5;exitDx=0;exitDy=0;entryX=0;entryY=0.3333333333333333;entryDx=0;entryDy=0;entryPerimeter=0;endArrow=none;endFill=0;" parent="1" source="qsIikp0Rk30uA765-qr5-23" target="qsIikp0Rk30uA765-qr5-62" edge="1">
          <mxGeometry relative="1" as="geometry">
            <Array as="points">
              <mxPoint x="850" y="-951" />
              <mxPoint x="850" y="-830" />
              <mxPoint x="920" y="-830" />
            </Array>
          </mxGeometry>
        </mxCell>
        <mxCell id="qsIikp0Rk30uA765-qr5-65" style="edgeStyle=orthogonalEdgeStyle;rounded=0;orthogonalLoop=1;jettySize=auto;html=1;exitX=1;exitY=0.3333333333333333;exitDx=0;exitDy=0;exitPerimeter=0;entryX=0;entryY=0.383;entryDx=0;entryDy=0;entryPerimeter=0;" parent="1" source="qsIikp0Rk30uA765-qr5-22" target="qsIikp0Rk30uA765-qr5-21" edge="1">
          <mxGeometry relative="1" as="geometry" />
        </mxCell>
        <mxCell id="qsIikp0Rk30uA765-qr5-73" value="add new time track" style="ellipse;whiteSpace=wrap;html=1;fillColor=#fff2cc;strokeColor=#d6b656;" parent="1" vertex="1">
          <mxGeometry x="780" y="-460" width="120" height="80" as="geometry" />
        </mxCell>
        <mxCell id="qsIikp0Rk30uA765-qr5-74" value="extend" style="endArrow=none;dashed=1;html=1;dashPattern=1 3;strokeWidth=2;rounded=0;entryX=0;entryY=0.5;entryDx=0;entryDy=0;endFill=0;startArrow=classic;startFill=1;exitX=1;exitY=1;exitDx=0;exitDy=0;" parent="1" source="qsIikp0Rk30uA765-qr5-59" target="qsIikp0Rk30uA765-qr5-73" edge="1">
          <mxGeometry width="50" height="50" relative="1" as="geometry">
            <mxPoint x="396" y="-959" as="sourcePoint" />
            <mxPoint x="700" y="-900" as="targetPoint" />
          </mxGeometry>
        </mxCell>
        <mxCell id="qsIikp0Rk30uA765-qr5-75" value="delete Time Track" style="ellipse;whiteSpace=wrap;html=1;fillColor=#fff2cc;strokeColor=#d6b656;" parent="1" vertex="1">
          <mxGeometry x="780" y="-360" width="120" height="80" as="geometry" />
        </mxCell>
        <mxCell id="qsIikp0Rk30uA765-qr5-76" value="delete all Time Tracks" style="ellipse;whiteSpace=wrap;html=1;fillColor=#fff2cc;strokeColor=#d6b656;" parent="1" vertex="1">
          <mxGeometry x="780" y="-580" width="120" height="80" as="geometry" />
        </mxCell>
        <mxCell id="qsIikp0Rk30uA765-qr5-77" value="extend" style="endArrow=none;dashed=1;html=1;dashPattern=1 3;strokeWidth=2;rounded=0;entryX=0;entryY=0.5;entryDx=0;entryDy=0;endFill=0;startArrow=classic;startFill=1;exitX=1;exitY=0.5;exitDx=0;exitDy=0;" parent="1" source="qsIikp0Rk30uA765-qr5-59" target="qsIikp0Rk30uA765-qr5-76" edge="1">
          <mxGeometry width="50" height="50" relative="1" as="geometry">
            <mxPoint x="580" y="-576" as="sourcePoint" />
            <mxPoint x="460" y="-460" as="targetPoint" />
          </mxGeometry>
        </mxCell>
        <mxCell id="qsIikp0Rk30uA765-qr5-78" value="extend" style="endArrow=none;dashed=1;html=1;dashPattern=1 3;strokeWidth=2;rounded=0;entryX=0;entryY=0.5;entryDx=0;entryDy=0;endFill=0;startArrow=classic;startFill=1;exitX=1;exitY=0.5;exitDx=0;exitDy=0;" parent="1" source="qsIikp0Rk30uA765-qr5-27" target="qsIikp0Rk30uA765-qr5-75" edge="1">
          <mxGeometry width="50" height="50" relative="1" as="geometry">
            <mxPoint x="580" y="-576" as="sourcePoint" />
            <mxPoint x="460" y="-460" as="targetPoint" />
          </mxGeometry>
        </mxCell>
        <mxCell id="qsIikp0Rk30uA765-qr5-79" value="edit Time Track" style="ellipse;whiteSpace=wrap;html=1;fillColor=#fff2cc;strokeColor=#d6b656;" parent="1" vertex="1">
          <mxGeometry x="780" y="-260" width="120" height="80" as="geometry" />
        </mxCell>
        <mxCell id="qsIikp0Rk30uA765-qr5-80" value="extend" style="endArrow=none;dashed=1;html=1;dashPattern=1 3;strokeWidth=2;rounded=0;entryX=0;entryY=0.5;entryDx=0;entryDy=0;endFill=0;startArrow=classic;startFill=1;exitX=1;exitY=1;exitDx=0;exitDy=0;" parent="1" source="qsIikp0Rk30uA765-qr5-27" target="qsIikp0Rk30uA765-qr5-79" edge="1">
          <mxGeometry width="50" height="50" relative="1" as="geometry">
            <mxPoint x="502" y="-308" as="sourcePoint" />
            <mxPoint x="580" y="-340" as="targetPoint" />
          </mxGeometry>
        </mxCell>
        <mxCell id="PMJGMxURvAY6IK8JLLdZ-1" value="extend" style="endArrow=none;dashed=1;html=1;dashPattern=1 3;strokeWidth=2;rounded=0;entryX=0;entryY=0.5;entryDx=0;entryDy=0;endFill=0;startArrow=classic;startFill=1;exitX=0.5;exitY=1;exitDx=0;exitDy=0;" parent="1" source="qsIikp0Rk30uA765-qr5-21" target="qsIikp0Rk30uA765-qr5-52" edge="1">
          <mxGeometry width="50" height="50" relative="1" as="geometry">
            <mxPoint x="220" y="-930" as="sourcePoint" />
            <mxPoint x="690" y="-980" as="targetPoint" />
          </mxGeometry>
        </mxCell>
        <mxCell id="PMJGMxURvAY6IK8JLLdZ-2" value="extend" style="endArrow=none;dashed=1;html=1;dashPattern=1 3;strokeWidth=2;rounded=0;entryX=0;entryY=0.5;entryDx=0;entryDy=0;endFill=0;startArrow=classic;startFill=1;exitX=0.75;exitY=0.5;exitDx=0;exitDy=0;exitPerimeter=0;" parent="1" source="PMJGMxURvAY6IK8JLLdZ-7" target="qsIikp0Rk30uA765-qr5-59" edge="1">
          <mxGeometry width="50" height="50" relative="1" as="geometry">
            <mxPoint x="269.28" y="-536.6400000000001" as="sourcePoint" />
            <mxPoint x="700" y="-970" as="targetPoint" />
          </mxGeometry>
        </mxCell>
        <mxCell id="PMJGMxURvAY6IK8JLLdZ-3" value="extend" style="endArrow=none;dashed=1;html=1;dashPattern=1 3;strokeWidth=2;rounded=0;entryX=0.5;entryY=0;entryDx=0;entryDy=0;endFill=0;startArrow=classic;startFill=1;exitX=0.5;exitY=1;exitDx=0;exitDy=0;" parent="1" source="qsIikp0Rk30uA765-qr5-59" target="qsIikp0Rk30uA765-qr5-27" edge="1">
          <mxGeometry width="50" height="50" relative="1" as="geometry">
            <mxPoint x="279" y="-527" as="sourcePoint" />
            <mxPoint x="540" y="-606" as="targetPoint" />
          </mxGeometry>
        </mxCell>
        <mxCell id="PMJGMxURvAY6IK8JLLdZ-7" value="subjects&amp;nbsp;" style="shape=switch;whiteSpace=wrap;html=1;strokeColor=#d6b656;align=center;verticalAlign=middle;fontFamily=Helvetica;fontSize=12;fontColor=default;fillColor=#fff2cc;" parent="1" vertex="1">
          <mxGeometry x="160" y="-570" width="60" height="60" as="geometry" />
        </mxCell>
      </root>
    </mxGraphModel>
  </diagram>
</mxfile>
